<?xml version="1.0" encoding="utf-8" ?><svg xmlns="http://www.w3.org/2000/svg" xmlns:xlink="http://www.w3.org/1999/xlink" width="668" height="524" viewBox="0 0 668 524"><path transform="scale(0.962542 0.962542)" d="M293.232 23.488C294.727 23.2655 296.811 23.2614 298.365 23.2534L516.904 23.2611L577.327 23.287L595.091 23.2129C598.725 23.1985 603.437 22.9958 606.935 23.55C625.736 26.5282 645.889 46.2027 645.954 66.0102L645.928 145.051L645.938 165.906C645.946 170.069 646.228 177.817 645.339 181.61C643.265 190.602 638.698 198.317 632.414 204.833C622.387 215.229 608.948 219.348 594.846 219.673C590.919 219.763 586.724 220.454 582.655 220.411C574.705 220.328 566.759 219.971 558.791 219.842C543.608 219.578 528.424 219.449 513.239 219.456C505.603 219.454 492.45 219.88 485.386 222.036C468.608 227.319 455.347 240.464 452.059 258.068C450.678 265.463 450.73 274.016 449.186 281.082C446.298 294.295 430.812 311.727 417.723 314.993C401.552 319.028 381.664 318.002 364.837 317.995L314.215 317.914L174.222 317.929L129.835 318.365C111.573 318.453 91.1783 320.068 76.5208 307.154C68.3943 299.993 62.6512 293.018 59.4371 282.364C55.6117 269.737 56.9472 256.107 63.151 244.463C69.3072 233.073 83.7753 221.147 96.9227 219.582C118.294 217.037 140.231 217.667 161.752 217.643L269.878 218.243C285.301 218.262 304.391 219.351 319.233 215.418C330.152 212.524 340.46 201.396 345.714 191.597C351.35 181.084 352.476 166.782 348.831 155.304C346.294 147.335 341.637 140.208 335.36 134.683C314.257 116.35 301.06 127.59 280.16 116.482C268.21 110.049 259.325 99.1056 255.484 86.0863C251.493 72.5038 254.458 53.9302 263.119 42.8415C271.761 31.7759 280.074 27.2963 293.232 23.488Z"/><path transform="scale(0.962542 0.962542)" d="M501.234 413.6C505.215 413.383 510.146 413.572 514.218 413.609L538.598 413.838L579.061 413.841C583.494 413.804 587.929 413.522 592.362 413.491C595.16 413.41 598.005 414.065 600.759 414.246C622.972 415.71 641.737 432.6 645.681 454.438C646.279 457.746 646.122 464.137 646.206 467.818C646.453 478.713 640.359 490.908 632.864 498.553C629.581 501.854 620.02 508.443 615.645 509.779C611.603 511.013 601.87 510.496 597.169 510.462L518.022 510.47L495.769 510.48C484.617 510.479 482.223 511.443 472.574 504.95C462.495 498.311 452.951 488.863 450.827 476.415C446.036 448.333 460.233 420.54 489.8 415.023C493.607 414.313 497.353 414.311 501.234 413.6Z"/><path transform="scale(0.962542 0.962542)" d="M110.242 413.989C132.303 414.168 154.364 414.224 176.426 414.158C188.614 414.155 207.692 413.118 218.694 415.802C238.658 422.249 253.471 439.22 253.998 460.445C254.386 476.055 251.948 486.549 241.05 498.053C237.892 501.387 226.831 509.161 222.131 510.002C216.689 510.976 206.81 510.488 200.864 510.466L123.822 510.483L103.399 510.482C90.089 510.477 87.8099 511.096 76.6036 502.583C41.6863 476.057 57.1068 421.003 99.671 414.907C103.161 414.408 106.715 414.38 110.242 413.989Z"/><path transform="scale(0.962542 0.962542)" d="M108.456 22.4353C136.039 23.16 157.79 46.1517 156.99 73.7385C156.191 101.325 133.146 123.019 105.567 122.144C78.0941 121.274 56.5064 98.3304 57.3026 70.8491C58.0988 43.3678 80.9786 21.7133 108.456 22.4353Z"/></svg>